<svg width="267" height="173" viewBox="0 0 267 173" fill="none" xmlns="http://www.w3.org/2000/svg">
<g clip-path="url(#clip0_5_14808)">
<path d="M65.4753 173.106H48.8582C46.3746 173.106 44.3539 171.094 44.3539 168.619V120.034C44.3539 117.56 46.3746 115.547 48.8582 115.547H65.4753C67.9589 115.547 69.9795 117.56 69.9795 120.034V168.619C69.9795 171.094 67.9589 173.106 65.4753 173.106Z" fill="#3F3D56"/>
<path d="M228.273 173.202H211.656C209.172 173.202 207.152 171.189 207.152 168.715V120.129C207.152 117.655 209.172 115.642 211.656 115.642H228.273C230.757 115.642 232.777 117.655 232.777 120.129V168.715C232.777 171.189 230.757 173.202 228.273 173.202Z" fill="#3F3D56"/>
<path d="M69.4147 52.3815L44.9449 87.0011C41.9921 91.1787 40.8214 96.3515 41.6891 101.387L49.126 144.547C50.7233 153.818 58.7926 160.593 68.2349 160.593H212.027C222.275 160.593 230.753 152.649 231.38 142.46L234.25 95.765C234.591 90.2061 232.507 84.7709 228.532 80.8542L194.209 47.033C190.441 43.3206 185.312 41.3062 180.015 41.4583L84.7091 44.1949C78.6007 44.3702 72.9328 47.4041 69.4147 52.3815H69.4147Z" fill="#FFBE00"/>
<path d="M73.142 58.5273L68.4634 67.2417C65.482 72.7947 69.8289 79.3523 76.4427 79.2791L193.578 77.983C200.773 77.9034 204.825 70.178 200.522 64.7445L193.146 55.4313C191.445 53.2836 188.748 52.0395 185.905 52.0908L80.824 53.9856C77.5659 54.0444 74.6109 55.7914 73.142 58.5273H73.142Z" fill="white"/>
<path d="M219.768 76.7124C219.011 76.7124 218.274 76.4328 217.708 75.9225C217.067 75.3443 216.699 74.5182 216.699 73.6565L216.699 71.741L217.084 62.913C217.156 61.2736 218.502 59.9896 220.149 59.9896H232.343C233.479 59.9896 234.516 60.6093 235.051 61.6074L236.504 64.3212C236.963 65.1795 236.989 66.1766 236.574 67.0569C236.16 67.9377 235.374 68.5555 234.418 68.752L225.225 70.6471C224.274 70.8426 223.525 71.544 223.27 72.4776L222.727 74.4606C222.394 75.6732 221.327 76.5721 220.072 76.6973C219.97 76.7075 219.869 76.7124 219.768 76.7124V76.7124Z" fill="#FFBE00"/>
<path d="M55.0497 76.6973C53.794 76.5721 52.727 75.6732 52.3948 74.4606L51.8519 72.4776C51.5965 71.544 50.8472 70.8426 49.8967 70.6471L40.7035 68.752C39.7476 68.5555 38.9616 67.9377 38.5472 67.0569C38.1328 66.1766 38.1585 65.1795 38.6178 64.3212L40.0708 61.6074C40.6054 60.6093 41.6427 59.9896 42.7781 59.9896H54.9721C56.6194 59.9896 57.9656 61.2736 58.0372 62.913L58.4226 71.741L58.4229 73.6565C58.4229 74.5182 58.0549 75.3443 57.4136 75.9225C56.8475 76.4328 56.1105 76.7124 55.3537 76.7124C55.2526 76.7124 55.151 76.7075 55.0497 76.6972L55.0497 76.6973Z" fill="#FFBE00"/>
<path d="M71.9894 114.546C78.6494 114.546 84.0485 109.168 84.0485 102.533C84.0485 95.8992 78.6494 90.5211 71.9894 90.5211C65.3293 90.5211 59.9303 95.8992 59.9303 102.533C59.9303 109.168 65.3293 114.546 71.9894 114.546Z" fill="white"/>
<path d="M210.92 114.796C217.58 114.796 222.979 109.418 222.979 102.784C222.979 96.1495 217.58 90.7714 210.92 90.7714C204.26 90.7714 198.861 96.1495 198.861 102.784C198.861 109.418 204.26 114.796 210.92 114.796Z" fill="white"/>
<path d="M55.9376 38.3581C57.048 38.9772 57.9935 39.8522 58.6949 40.91L66.6133 45.6004L80.0674 51.8778C80.0674 51.8778 83.2403 40.6421 87.0311 39.9245C90.8219 39.2068 97.076 47.5339 97.076 47.5339C97.076 47.5339 86.1739 65.118 81.4248 63.315C76.6758 61.512 66.0649 52.756 66.0649 52.756L64.6788 51.634L55.8628 45.7918C54.5922 45.7148 53.3586 45.3357 52.2652 44.6864C49.5079 43.0997 48.0947 40.3963 49.1087 38.6486C50.1227 36.9007 53.1795 36.7705 55.9376 38.3581V38.3581Z" fill="#A0616A"/>
<path d="M82.1617 43.2348L89.042 35.1666L93.1987 35.7631C98.2971 36.4947 101.131 42.0345 98.7299 46.5738L96.335 51.1003L82.1617 43.2348V43.2348Z" fill="#E6E6E6"/>
<path d="M59.7888 53.798L47.679 37.1686C47.4994 36.9231 47.5434 36.579 47.7788 36.3854L50.6838 33.9959C50.8097 33.8923 50.9748 33.8466 51.1364 33.8704C51.2977 33.8944 51.4429 33.9852 51.5339 34.121L63.5658 52.1087C63.665 52.2563 63.69 52.438 63.6348 52.607C63.5793 52.7764 63.4513 52.9086 63.2832 52.97L60.4564 54.0006C60.2486 54.0766 60.0166 54.0256 59.8593 53.8778C59.8337 53.8537 59.8099 53.8272 59.7888 53.798V53.798Z" fill="#3F3D56"/>
<path d="M60.7515 52.7814L48.2184 36.599C48.0326 36.3601 48.0455 36.0488 48.2475 35.8905L50.7397 33.9368C50.8478 33.8521 50.9966 33.8236 51.1479 33.8582C51.2989 33.8931 51.4404 33.9877 51.5355 34.1193L64.1062 51.5381C64.2097 51.6811 64.2475 51.8493 64.2101 51.9995C64.1725 52.15 64.0648 52.2607 63.9144 52.3035L61.3849 53.0202C61.1989 53.0731 60.9804 53.0078 60.8231 52.86C60.7975 52.8359 60.7733 52.8098 60.7515 52.7814H60.7515Z" fill="#E6E6E6"/>
<path d="M55.7508 153.967L50.3014 165.681L41.4103 161.681L48.2938 152.824L55.7508 153.967Z" fill="#A0616A"/>
<path d="M46.5729 161.966L53.1695 161.109C53.1695 161.109 57.7585 171.966 54.3168 172.537C50.8751 173.109 23.915 175.68 23.915 172.252C23.915 168.823 35.1005 164.538 35.1005 164.538L42.8444 159.109L46.5729 161.966V161.966Z" fill="#2F2E41"/>
<path d="M98.4854 78.5424C98.4854 78.5424 106.516 90.5417 89.3075 97.9699L70.9517 124.254L55.7508 157.11L46.5729 153.681L62.6342 103.97L71.8121 81.685L76.1143 74.8283L98.4854 78.5424V78.5424Z" fill="#2F2E41"/>
<path d="M34.6745 122.76L31.0216 135.146L21.635 132.499L27.1298 122.726L34.6745 122.76Z" fill="#A0616A"/>
<path d="M26.7833 132.022L33.1805 130.203C33.1805 130.203 39.3288 140.266 36.0095 141.337C32.6903 142.409 6.40708 148.918 5.89877 145.527C5.39045 142.137 15.818 136.253 15.818 136.253L22.6721 129.745L26.7833 132.022H26.7833Z" fill="#2F2E41"/>
<path d="M80.9906 76.143L36.9107 85.6716C33.5095 86.4068 30.8724 89.0855 30.2009 92.4872L24.0312 123.738L37.534 128.104L43.5983 100.202L82.7327 98.6921L80.9906 76.143H80.9906Z" fill="#2F2E41"/>
<path d="M92.0719 23.3435L86.6214 33.9794L101.121 36.2264L100.963 21.9268L92.0719 23.3435Z" fill="#A0616A"/>
<path d="M95.0983 27.7071C100.672 27.7071 105.191 23.2059 105.191 17.6533C105.191 12.1008 100.672 7.59955 95.0983 7.59955C89.5242 7.59955 85.0054 12.1008 85.0054 17.6533C85.0054 23.2059 89.5242 27.7071 95.0983 27.7071Z" fill="#A0616A"/>
<path d="M101.64 81.9707L103.305 55.1126C104.745 48.6839 104.265 41.9759 101.925 35.8153L101.353 29.4022L88.1602 30.2593L82.5675 39.2588L77.2615 60.5433L76.1143 74.8283L101.64 81.9708V81.9707Z" fill="#E6E6E6"/>
<path d="M63.0323 61.1892C64.2925 61.0125 65.5768 61.1389 66.7778 61.5579L75.9309 60.5167L90.4547 57.4006C90.4547 57.4006 86.1526 46.5441 88.7339 43.6871C91.3152 40.8301 101.353 43.6871 101.353 43.6871C101.353 43.6871 103.361 64.2574 98.4854 65.6859C93.6096 67.1144 79.8428 66.543 79.8428 66.543L78.0576 66.4857L67.4902 67.1514C66.432 67.8563 65.2197 68.2984 63.9548 68.4408C60.7958 68.8405 58.0282 67.5407 57.7732 65.5382C57.5182 63.5355 59.8721 61.5886 63.0323 61.1892V61.1892Z" fill="#A0616A"/>
<path d="M86.8696 49.2582L87.4432 38.6874L91.1143 36.6558C95.6172 34.1639 101.24 36.8643 102.086 41.9256L102.931 46.9726L86.8696 49.2582V49.2582Z" fill="#E6E6E6"/>
<path d="M102.967 23.8325C102.967 23.8325 103.908 19.145 101.085 18.8325C98.2615 18.52 95.4381 12.8949 95.4381 12.8949C95.4381 12.8949 85.6954 11.2021 85.3817 15.2646C85.068 19.3272 85.1882 18.4243 85.1882 18.4243C85.1882 18.4243 82.872 17.4522 83.8131 13.3896C84.082 12.2289 84.7351 11.1702 85.5308 10.25C88.0882 7.29251 92.0171 5.89535 95.9099 6.34244C97.5586 6.53178 102.467 8.09044 103.415 9.15298C105.925 11.9655 107.046 20.7075 102.967 23.8325V23.8325Z" fill="#3F3D56"/>
<path d="M69.692 143.02C67.9214 143.02 66.3595 142.097 65.5097 140.548C64.6551 138.99 64.7248 137.171 65.6961 135.682L65.8404 135.776L65.6961 135.682L68.844 130.858C69.7271 129.505 71.2215 128.697 72.8418 128.697H209.757C211.153 128.697 212.474 129.303 213.381 130.36L216.836 134.385C218.056 135.807 218.328 137.746 217.548 139.447C216.767 141.148 215.116 142.21 213.238 142.221L69.7206 143.02H69.692V143.02Z" fill="#3F3D56"/>
<path d="M233.502 84.781C236.021 86.422 238.913 86.4575 239.961 84.8606C241.009 83.2637 239.817 80.6395 237.297 78.9983C236.299 78.329 235.155 77.9073 233.961 77.7687L223.201 70.9501L220.096 76.0481L231.033 82.2288C231.64 83.2638 232.486 84.1389 233.502 84.781L233.502 84.781Z" fill="#FFB6B6"/>
<path d="M202.899 67.9782L229.296 81.569L231.593 75.278L213.687 61.3068L212.495 40.9239C212.35 38.4347 211.097 36.1786 209.057 34.7335C207.018 33.289 204.467 32.8499 202.059 33.5292C197.772 34.739 195.216 39.2133 196.362 43.5026L202.899 67.9782V67.9782Z" fill="#E6E6E6"/>
<path d="M209.275 31.5046L210.509 23.8207L202.178 20.4397L200.944 32.1193L209.275 31.5046Z" fill="#FFB6B6"/>
<path d="M183.04 75.2274C183.04 75.2274 180.649 90.1173 190.215 91.9041C199.782 93.6909 221.606 94.8821 221.606 94.8821L249.707 128.831L255.388 122.577L231.172 85.3526L211.74 73.1428L183.04 75.2274V75.2274Z" fill="#2F2E41"/>
<path d="M185.323 72.817C185.323 72.817 179.746 86.8354 188.695 90.6471C197.645 94.4587 218.69 100.338 218.69 100.338L238.728 139.551L245.635 134.674L230.104 93.1027L213.794 76.9843L185.323 72.817V72.817Z" fill="#2F2E41"/>
<path d="M210.843 30.2598L200.081 28.4731L192.786 32.5175C188.541 38.6689 188.19 58.1794 187.188 65.5773L181.246 79.3966L200.081 76.7164L215.327 75.2274L210.245 42.1718L210.843 30.2598L210.843 30.2598Z" fill="#E6E6E6"/>
<path d="M207.17 26.2908C211.862 26.2908 215.665 22.5019 215.665 17.8281C215.665 13.1543 211.862 9.36548 207.17 9.36548C202.478 9.36548 198.674 13.1543 198.674 17.8281C198.674 22.5019 202.478 26.2908 207.17 26.2908Z" fill="#FFB6B6"/>
<path d="M206.492 6.45067C206.738 6.59362 207.067 6.37735 207.146 6.10489C207.225 5.83244 207.133 5.54316 207.042 5.27452C206.889 4.82372 206.736 4.37292 206.583 3.92212C206.258 2.96297 205.913 1.9703 205.209 1.24026C204.146 0.138389 202.458 -0.141922 200.937 0.061153C198.985 0.321942 197.059 1.37503 196.151 3.11646C195.243 4.85789 195.629 7.2878 197.27 8.37427C194.932 11.0434 194.117 14.0181 194.246 17.558C194.374 21.098 198.247 24.3558 200.773 26.8496C201.337 26.509 201.849 24.913 201.539 24.3332C201.229 23.7534 201.673 23.0817 201.289 22.5477C200.905 22.0136 200.584 22.864 200.972 22.333C201.217 21.9979 200.261 21.227 200.625 21.0265C202.387 20.0564 202.973 17.8691 204.079 16.194C205.414 14.1736 207.698 12.8053 210.115 12.5784C211.447 12.4533 212.853 12.6798 213.945 13.4498C215.036 14.2199 215.743 15.596 215.49 16.9042C216.145 16.2413 216.471 15.2697 216.348 14.3473C216.225 13.4249 215.655 12.5719 214.849 12.1025C215.339 10.487 214.919 8.62865 213.781 7.37851C212.643 6.12836 208.025 6.34129 206.363 6.6703" fill="#2F2E41"/>
<path d="M206.234 12.6274C204.033 12.8641 202.443 14.7633 201.102 16.5172C200.328 17.5281 199.518 18.6445 199.537 19.9154C199.557 21.2003 200.419 22.3024 200.832 23.5201C201.505 25.5105 200.849 27.8786 199.245 29.2424C200.83 29.5419 202.543 28.3584 202.816 26.7749C203.135 24.9316 201.732 23.1526 201.898 21.2895C202.044 19.6481 203.343 18.3849 204.447 17.1576C205.551 15.9304 206.588 14.3018 206.08 12.7336" fill="#2F2E41"/>
<path d="M226.75 86.3727C229.269 88.0137 232.161 88.0492 233.209 86.4523C234.257 84.8554 233.065 82.2312 230.545 80.59C229.547 79.9207 228.403 79.499 227.209 79.3604L216.449 72.5418L213.344 77.6398L224.281 83.8205C224.888 84.8555 225.734 85.7306 226.75 86.3727V86.3727Z" fill="#FFB6B6"/>
<path d="M196.147 69.5699L222.544 83.1607L224.84 76.8697L206.935 62.8985L205.743 42.5156C205.598 40.0265 204.345 37.7703 202.305 36.3252C200.266 34.8807 197.715 34.4416 195.307 35.1209C191.02 36.3307 188.464 40.805 189.61 45.0943L196.147 69.5699V69.5699Z" fill="#E6E6E6"/>
<path d="M239.679 134.29L240.29 134.638C240.29 134.638 244.476 132.256 246.568 134.638C248.661 137.021 250.156 142.977 250.156 142.977C250.156 142.977 258.826 150.124 253.743 150.124C249.918 150.124 240.84 145.905 236.586 143.819C235.228 143.153 234.595 141.571 235.123 140.158C235.564 138.98 236.133 137.744 236.703 137.318C237.301 136.872 237.674 135.904 237.899 135.048C238.102 134.272 238.981 133.893 239.679 134.29V134.29Z" fill="#2F2E41"/>
<path d="M251.339 122.974L251.95 123.322C251.95 123.322 256.135 120.939 258.228 123.322C260.32 125.704 261.815 131.66 261.815 131.66C261.815 131.66 270.485 138.807 265.403 138.807C261.577 138.807 252.5 134.589 248.245 132.503C246.887 131.837 246.254 130.255 246.783 128.842C247.223 127.664 247.793 126.428 248.362 126.002C248.96 125.555 249.334 124.588 249.558 123.731C249.761 122.956 250.64 122.576 251.339 122.974V122.974Z" fill="#2F2E41"/>
</g>
<defs>
<clipPath id="clip0_5_14808">
<rect width="267" height="174" fill="white"/>
</clipPath>
</defs>
</svg>
