<svg height="24" viewBox="0 0 24 24" width="24" xmlns="http://www.w3.org/2000/svg"><path d="m3 19.723v1.174.103c0 .553.447 1 1 1h1c.553 0 1-.447 1-1v-1h12v1c0 .553.447 1 1 1h1c.553 0 1-.447 1-1v-1.277c.596-.347 1-.984 1-1.723v-3c0-.831-.507-1.542-1.228-1.845l-1.368-4.104c-.409-1.227-1.552-2.051-2.845-2.051h-9.118c-1.293 0-2.436.824-2.845 2.051l-1.368 4.104c-.721.303-1.228 1.014-1.228 1.845v3c0 .738.404 1.376 1 1.723zm2.5-1.723c-.828 0-1.5-.672-1.5-1.5s.672-1.5 1.5-1.5 1.5.672 1.5 1.5-.672 1.5-1.5 1.5zm13 0c-.828 0-1.5-.672-1.5-1.5s.672-1.5 1.5-1.5 1.5.672 1.5 1.5-.672 1.5-1.5 1.5zm-11.059-9h9.117c.431 0 .813.275.949.684l1.106 3.316h-.794-11.638-.794l1.105-3.316c.137-.409.519-.684.949-.684z"/><path d="m22 7.388v-2.109l-9.684-3.228c-.215-.072-.448-.068-.658.009l-9.658 3.512v2.128l10.015-3.642z"/></svg>