<svg width="120" height="40" viewBox="0 0 120 40" fill="none" xmlns="http://www.w3.org/2000/svg">
<rect x="0.5" y="0.5" width="119" height="39" rx="19.5" fill="#F0FDF4"/>
<path d="M20.1666 20.8334L23.5 24.1667L31.8333 15.8334" stroke="#15803D" stroke-width="2" stroke-linecap="round" stroke-linejoin="round"/>
<path d="M45.5784 25.128C45.3224 25.128 45.1144 25.0693 44.9544 24.952C44.805 24.8347 44.7144 24.68 44.6824 24.488C44.6504 24.2853 44.6877 24.0613 44.7944 23.816L49.0184 14.456C49.157 14.1467 49.3224 13.928 49.5144 13.8C49.717 13.6613 49.9464 13.592 50.2024 13.592C50.4477 13.592 50.6664 13.6613 50.8584 13.8C51.061 13.928 51.2317 14.1467 51.3704 14.456L55.6104 23.816C55.7277 24.0613 55.7704 24.2853 55.7384 24.488C55.7064 24.6907 55.6157 24.8507 55.4664 24.968C55.317 25.0747 55.1197 25.128 54.8744 25.128C54.5757 25.128 54.341 25.0587 54.1704 24.92C54.0104 24.7707 53.8664 24.5467 53.7384 24.248L52.6984 21.832L53.5624 22.392H46.8104L47.6744 21.832L46.6504 24.248C46.5117 24.5573 46.3677 24.7813 46.2184 24.92C46.069 25.0587 45.8557 25.128 45.5784 25.128ZM50.1704 15.944L47.9304 21.272L47.5144 20.76H52.8584L52.4584 21.272L50.2024 15.944H50.1704ZM60.7185 25.16C59.8972 25.16 59.1825 24.9947 58.5745 24.664C57.9665 24.3227 57.4972 23.8427 57.1665 23.224C56.8358 22.6053 56.6705 21.88 56.6705 21.048C56.6705 20.4187 56.7612 19.8587 56.9425 19.368C57.1345 18.8667 57.4065 18.4453 57.7585 18.104C58.1105 17.752 58.5372 17.4853 59.0385 17.304C59.5398 17.112 60.0998 17.016 60.7185 17.016C61.0705 17.016 61.4492 17.064 61.8545 17.16C62.2705 17.256 62.6598 17.416 63.0225 17.64C63.1932 17.7467 63.3052 17.8747 63.3585 18.024C63.4118 18.1733 63.4225 18.328 63.3905 18.488C63.3585 18.6373 63.2892 18.7707 63.1825 18.888C63.0865 18.9947 62.9638 19.064 62.8145 19.096C62.6652 19.1173 62.4998 19.08 62.3185 18.984C62.0838 18.8453 61.8438 18.744 61.5985 18.68C61.3532 18.6053 61.1185 18.568 60.8945 18.568C60.5425 18.568 60.2332 18.6267 59.9665 18.744C59.6998 18.8507 59.4705 19.0107 59.2785 19.224C59.0972 19.4267 58.9585 19.6827 58.8625 19.992C58.7665 20.3013 58.7185 20.6587 58.7185 21.064C58.7185 21.8533 58.9052 22.4773 59.2785 22.936C59.6625 23.384 60.2012 23.608 60.8945 23.608C61.1185 23.608 61.3478 23.576 61.5825 23.512C61.8278 23.448 62.0732 23.3467 62.3185 23.208C62.4998 23.112 62.6598 23.08 62.7985 23.112C62.9478 23.144 63.0705 23.2187 63.1665 23.336C63.2625 23.4427 63.3212 23.576 63.3425 23.736C63.3638 23.8853 63.3425 24.0347 63.2785 24.184C63.2252 24.3333 63.1185 24.456 62.9585 24.552C62.6065 24.7653 62.2332 24.92 61.8385 25.016C61.4438 25.112 61.0705 25.16 60.7185 25.16ZM68.1091 25.16C67.2878 25.16 66.5731 24.9947 65.9651 24.664C65.3571 24.3227 64.8878 23.8427 64.5571 23.224C64.2265 22.6053 64.0611 21.88 64.0611 21.048C64.0611 20.4187 64.1518 19.8587 64.3331 19.368C64.5251 18.8667 64.7971 18.4453 65.1491 18.104C65.5011 17.752 65.9278 17.4853 66.4291 17.304C66.9305 17.112 67.4905 17.016 68.1091 17.016C68.4611 17.016 68.8398 17.064 69.2451 17.16C69.6611 17.256 70.0505 17.416 70.4131 17.64C70.5838 17.7467 70.6958 17.8747 70.7491 18.024C70.8025 18.1733 70.8131 18.328 70.7811 18.488C70.7491 18.6373 70.6798 18.7707 70.5731 18.888C70.4771 18.9947 70.3545 19.064 70.2051 19.096C70.0558 19.1173 69.8905 19.08 69.7091 18.984C69.4745 18.8453 69.2345 18.744 68.9891 18.68C68.7438 18.6053 68.5091 18.568 68.2851 18.568C67.9331 18.568 67.6238 18.6267 67.3571 18.744C67.0905 18.8507 66.8611 19.0107 66.6691 19.224C66.4878 19.4267 66.3491 19.6827 66.2531 19.992C66.1571 20.3013 66.1091 20.6587 66.1091 21.064C66.1091 21.8533 66.2958 22.4773 66.6691 22.936C67.0531 23.384 67.5918 23.608 68.2851 23.608C68.5091 23.608 68.7385 23.576 68.9731 23.512C69.2185 23.448 69.4638 23.3467 69.7091 23.208C69.8905 23.112 70.0505 23.08 70.1891 23.112C70.3385 23.144 70.4611 23.2187 70.5571 23.336C70.6531 23.4427 70.7118 23.576 70.7331 23.736C70.7545 23.8853 70.7331 24.0347 70.6691 24.184C70.6158 24.3333 70.5091 24.456 70.3491 24.552C69.9971 24.7653 69.6238 24.92 69.2291 25.016C68.8345 25.112 68.4611 25.16 68.1091 25.16ZM75.7398 25.16C74.8544 25.16 74.0918 24.9947 73.4518 24.664C72.8118 24.3333 72.3158 23.864 71.9638 23.256C71.6224 22.648 71.4518 21.928 71.4518 21.096C71.4518 20.2853 71.6171 19.576 71.9478 18.968C72.2891 18.36 72.7531 17.8853 73.3398 17.544C73.9371 17.192 74.6144 17.016 75.3718 17.016C75.9264 17.016 76.4224 17.1067 76.8598 17.288C77.3078 17.4693 77.6864 17.7307 77.9958 18.072C78.3158 18.4133 78.5558 18.8293 78.7158 19.32C78.8864 19.8 78.9718 20.344 78.9718 20.952C78.9718 21.144 78.9024 21.2933 78.7638 21.4C78.6358 21.496 78.4491 21.544 78.2038 21.544H73.0678V20.392H77.5638L77.3078 20.632C77.3078 20.1413 77.2331 19.7307 77.0838 19.4C76.9451 19.0693 76.7371 18.8187 76.4598 18.648C76.1931 18.4667 75.8571 18.376 75.4518 18.376C75.0038 18.376 74.6198 18.4827 74.2998 18.696C73.9904 18.8987 73.7504 19.192 73.5798 19.576C73.4198 19.9493 73.3398 20.3973 73.3398 20.92V21.032C73.3398 21.9067 73.5424 22.5627 73.9478 23C74.3638 23.4267 74.9718 23.64 75.7718 23.64C76.0491 23.64 76.3584 23.608 76.6998 23.544C77.0518 23.4693 77.3824 23.3467 77.6918 23.176C77.9158 23.048 78.1131 22.9947 78.2838 23.016C78.4544 23.0267 78.5878 23.0853 78.6838 23.192C78.7904 23.2987 78.8544 23.432 78.8758 23.592C78.8971 23.7413 78.8651 23.896 78.7798 24.056C78.7051 24.216 78.5718 24.3547 78.3798 24.472C78.0064 24.7067 77.5744 24.8827 77.0838 25C76.6038 25.1067 76.1558 25.16 75.7398 25.16ZM81.5476 28.008C81.2276 28.008 80.9823 27.9227 80.8116 27.752C80.641 27.5813 80.5556 27.3307 80.5556 27V18.056C80.5556 17.7253 80.641 17.4747 80.8116 17.304C80.9823 17.1333 81.2223 17.048 81.5316 17.048C81.8516 17.048 82.097 17.1333 82.2676 17.304C82.4383 17.4747 82.5236 17.7253 82.5236 18.056V19.304L82.3476 18.824C82.5076 18.28 82.833 17.8427 83.3236 17.512C83.825 17.1813 84.4063 17.016 85.0676 17.016C85.7503 17.016 86.3476 17.1813 86.8596 17.512C87.3823 17.8427 87.7876 18.312 88.0756 18.92C88.3636 19.5173 88.5076 20.2373 88.5076 21.08C88.5076 21.912 88.3636 22.6373 88.0756 23.256C87.7876 23.864 87.3876 24.3333 86.8756 24.664C86.3636 24.9947 85.761 25.16 85.0676 25.16C84.417 25.16 83.8463 25 83.3556 24.68C82.865 24.3493 82.5343 23.9227 82.3636 23.4H82.5556V27C82.5556 27.3307 82.465 27.5813 82.2836 27.752C82.113 27.9227 81.8676 28.008 81.5476 28.008ZM84.5076 23.64C84.9023 23.64 85.249 23.544 85.5476 23.352C85.8463 23.16 86.0756 22.8773 86.2356 22.504C86.4063 22.12 86.4916 21.6453 86.4916 21.08C86.4916 20.2267 86.3103 19.592 85.9476 19.176C85.585 18.7493 85.105 18.536 84.5076 18.536C84.113 18.536 83.7663 18.632 83.4676 18.824C83.169 19.0053 82.9343 19.288 82.7636 19.672C82.6036 20.0453 82.5236 20.5147 82.5236 21.08C82.5236 21.9227 82.705 22.5627 83.0676 23C83.4303 23.4267 83.9103 23.64 84.5076 23.64ZM93.6553 25.16C92.9619 25.16 92.3806 25.0427 91.9113 24.808C91.4526 24.5733 91.1113 24.232 90.8873 23.784C90.6633 23.3253 90.5513 22.76 90.5513 22.088V18.68H89.7193C89.4633 18.68 89.2659 18.616 89.1273 18.488C88.9886 18.3493 88.9192 18.1627 88.9192 17.928C88.9192 17.6827 88.9886 17.496 89.1273 17.368C89.2659 17.24 89.4633 17.176 89.7193 17.176H90.5513V15.72C90.5513 15.3893 90.6366 15.1387 90.8073 14.968C90.9886 14.7973 91.2393 14.712 91.5593 14.712C91.8793 14.712 92.1246 14.7973 92.2953 14.968C92.4659 15.1387 92.5513 15.3893 92.5513 15.72V17.176H94.2473C94.5033 17.176 94.7006 17.24 94.8393 17.368C94.9779 17.496 95.0473 17.6827 95.0473 17.928C95.0473 18.1627 94.9779 18.3493 94.8393 18.488C94.7006 18.616 94.5033 18.68 94.2473 18.68H92.5513V21.976C92.5513 22.488 92.6633 22.872 92.8873 23.128C93.1113 23.384 93.4739 23.512 93.9753 23.512C94.1566 23.512 94.3166 23.496 94.4553 23.464C94.5939 23.432 94.7166 23.4107 94.8233 23.4C94.9513 23.3893 95.0579 23.432 95.1433 23.528C95.2286 23.6133 95.2713 23.7947 95.2713 24.072C95.2713 24.2853 95.2339 24.4773 95.1593 24.648C95.0953 24.808 94.9726 24.92 94.7913 24.984C94.6526 25.0267 94.4713 25.064 94.2473 25.096C94.0233 25.1387 93.8259 25.16 93.6553 25.16ZM99.9898 25.16C99.1044 25.16 98.3418 24.9947 97.7018 24.664C97.0618 24.3333 96.5658 23.864 96.2138 23.256C95.8724 22.648 95.7018 21.928 95.7018 21.096C95.7018 20.2853 95.8671 19.576 96.1978 18.968C96.5391 18.36 97.0031 17.8853 97.5898 17.544C98.1871 17.192 98.8644 17.016 99.6218 17.016C100.176 17.016 100.672 17.1067 101.11 17.288C101.558 17.4693 101.936 17.7307 102.246 18.072C102.566 18.4133 102.806 18.8293 102.966 19.32C103.136 19.8 103.222 20.344 103.222 20.952C103.222 21.144 103.152 21.2933 103.014 21.4C102.886 21.496 102.699 21.544 102.454 21.544H97.3178V20.392H101.814L101.558 20.632C101.558 20.1413 101.483 19.7307 101.334 19.4C101.195 19.0693 100.987 18.8187 100.71 18.648C100.443 18.4667 100.107 18.376 99.7018 18.376C99.2538 18.376 98.8698 18.4827 98.5498 18.696C98.2404 18.8987 98.0004 19.192 97.8298 19.576C97.6698 19.9493 97.5898 20.3973 97.5898 20.92V21.032C97.5898 21.9067 97.7924 22.5627 98.1978 23C98.6138 23.4267 99.2218 23.64 100.022 23.64C100.299 23.64 100.608 23.608 100.95 23.544C101.302 23.4693 101.632 23.3467 101.942 23.176C102.166 23.048 102.363 22.9947 102.534 23.016C102.704 23.0267 102.838 23.0853 102.934 23.192C103.04 23.2987 103.104 23.432 103.126 23.592C103.147 23.7413 103.115 23.896 103.03 24.056C102.955 24.216 102.822 24.3547 102.63 24.472C102.256 24.7067 101.824 24.8827 101.334 25C100.854 25.1067 100.406 25.16 99.9898 25.16ZM100.39 16.04C100.283 16.1893 100.155 16.2747 100.006 16.296C99.8564 16.3173 99.7124 16.2907 99.5738 16.216C99.4351 16.1413 99.3338 16.0347 99.2698 15.896C99.2164 15.7573 99.2324 15.6027 99.3177 15.432L100.534 13.048C100.63 12.8453 100.758 12.7173 100.918 12.664C101.078 12.6 101.243 12.5893 101.414 12.632C101.584 12.6747 101.728 12.7547 101.846 12.872C101.974 12.9893 102.048 13.1333 102.07 13.304C102.102 13.464 102.059 13.6293 101.942 13.8L100.39 16.04Z" fill="#15803D"/>
<rect x="0.5" y="0.5" width="119" height="39" rx="19.5" stroke="#16A34A"/>
</svg>
