<svg width="111" height="40" viewBox="0 0 111 40" fill="none" xmlns="http://www.w3.org/2000/svg">
<rect x="0.5" y="0.5" width="110" height="39" rx="19.5" fill="#FEF2F2"/>
<path d="M21 25L31 15ZM21 15L31 25Z" fill="#DC2626"/>
<path d="M21 25L31 15M21 15L31 25" stroke="#DC2626" stroke-width="2" stroke-linecap="round" stroke-linejoin="round"/>
<path d="M46.2638 25.128C45.9331 25.128 45.6771 25.0373 45.4958 24.856C45.3251 24.664 45.2398 24.4027 45.2398 24.072V14.76C45.2398 14.4187 45.3305 14.1627 45.5118 13.992C45.6931 13.8107 45.9491 13.72 46.2798 13.72H50.1358C51.3731 13.72 52.3278 14.0187 52.9998 14.616C53.6718 15.2027 54.0078 16.0293 54.0078 17.096C54.0078 17.7893 53.8531 18.3867 53.5438 18.888C53.2451 19.3893 52.8078 19.7733 52.2318 20.04C51.6558 20.3067 50.9571 20.44 50.1358 20.44L50.2798 20.2H50.8078C51.2451 20.2 51.6238 20.3067 51.9438 20.52C52.2745 20.7333 52.5625 21.0693 52.8078 21.528L54.0078 23.752C54.1358 23.976 54.1945 24.1947 54.1838 24.408C54.1731 24.6213 54.0931 24.7973 53.9438 24.936C53.7945 25.064 53.5758 25.128 53.2878 25.128C52.9998 25.128 52.7651 25.0693 52.5838 24.952C52.4025 24.824 52.2425 24.632 52.1038 24.376L50.4878 21.4C50.2958 21.0373 50.0665 20.7973 49.7998 20.68C49.5438 20.552 49.2131 20.488 48.8078 20.488H47.2878V24.072C47.2878 24.4027 47.2025 24.664 47.0318 24.856C46.8611 25.0373 46.6051 25.128 46.2638 25.128ZM47.2878 18.968H49.7838C50.5198 18.968 51.0745 18.8187 51.4478 18.52C51.8318 18.2107 52.0238 17.752 52.0238 17.144C52.0238 16.5467 51.8318 16.0987 51.4478 15.8C51.0745 15.4907 50.5198 15.336 49.7838 15.336H47.2878V18.968ZM59.6694 25.16C58.7841 25.16 58.0214 24.9947 57.3814 24.664C56.7414 24.3333 56.2454 23.864 55.8934 23.256C55.5521 22.648 55.3814 21.928 55.3814 21.096C55.3814 20.2853 55.5468 19.576 55.8774 18.968C56.2188 18.36 56.6828 17.8853 57.2694 17.544C57.8668 17.192 58.5441 17.016 59.3014 17.016C59.8561 17.016 60.3521 17.1067 60.7894 17.288C61.2374 17.4693 61.6161 17.7307 61.9254 18.072C62.2454 18.4133 62.4854 18.8293 62.6454 19.32C62.8161 19.8 62.9014 20.344 62.9014 20.952C62.9014 21.144 62.8321 21.2933 62.6934 21.4C62.5654 21.496 62.3788 21.544 62.1334 21.544H56.9974V20.392H61.4934L61.2374 20.632C61.2374 20.1413 61.1628 19.7307 61.0134 19.4C60.8748 19.0693 60.6668 18.8187 60.3894 18.648C60.1228 18.4667 59.7868 18.376 59.3814 18.376C58.9334 18.376 58.5494 18.4827 58.2294 18.696C57.9201 18.8987 57.6801 19.192 57.5094 19.576C57.3494 19.9493 57.2694 20.3973 57.2694 20.92V21.032C57.2694 21.9067 57.4721 22.5627 57.8774 23C58.2934 23.4267 58.9014 23.64 59.7014 23.64C59.9788 23.64 60.2881 23.608 60.6294 23.544C60.9814 23.4693 61.3121 23.3467 61.6214 23.176C61.8454 23.048 62.0428 22.9947 62.2134 23.016C62.3841 23.0267 62.5174 23.0853 62.6134 23.192C62.7201 23.2987 62.7841 23.432 62.8054 23.592C62.8268 23.7413 62.7948 23.896 62.7094 24.056C62.6348 24.216 62.5014 24.3547 62.3094 24.472C61.9361 24.7067 61.5041 24.8827 61.0134 25C60.5334 25.1067 60.0854 25.16 59.6694 25.16ZM65.9901 25.128C65.6701 25.128 65.4194 25.0427 65.2381 24.872C65.0674 24.6907 64.9821 24.4347 64.9821 24.104V18.68H64.2461C63.9901 18.68 63.7927 18.616 63.6541 18.488C63.5154 18.3493 63.4461 18.1627 63.4461 17.928C63.4461 17.6827 63.5154 17.496 63.6541 17.368C63.7927 17.24 63.9901 17.176 64.2461 17.176H65.5581L64.9821 17.704V17.16C64.9821 16.0613 65.2594 15.24 65.8141 14.696C66.3687 14.1413 67.1687 13.816 68.2141 13.72L68.7581 13.672C68.9714 13.6507 69.1421 13.688 69.2701 13.784C69.3981 13.8693 69.4834 13.9867 69.5261 14.136C69.5687 14.2747 69.5741 14.4187 69.5421 14.568C69.5101 14.7173 69.4407 14.8507 69.3341 14.968C69.2381 15.0747 69.1101 15.1333 68.9501 15.144L68.7261 15.16C68.1181 15.2027 67.6754 15.3573 67.3981 15.624C67.1207 15.8907 66.9821 16.296 66.9821 16.84V17.432L66.7261 17.176H68.3421C68.5981 17.176 68.7954 17.24 68.9341 17.368C69.0727 17.496 69.1421 17.6827 69.1421 17.928C69.1421 18.1627 69.0727 18.3493 68.9341 18.488C68.7954 18.616 68.5981 18.68 68.3421 18.68H66.9821V24.104C66.9821 24.7867 66.6514 25.128 65.9901 25.128ZM73.1142 25.16C72.4635 25.16 71.9249 25.0427 71.4982 24.808C71.0715 24.5627 70.7515 24.2 70.5382 23.72C70.3355 23.24 70.2342 22.6427 70.2342 21.928V18.056C70.2342 17.7147 70.3195 17.464 70.4902 17.304C70.6609 17.1333 70.9062 17.048 71.2262 17.048C71.5462 17.048 71.7915 17.1333 71.9622 17.304C72.1435 17.464 72.2342 17.7147 72.2342 18.056V21.96C72.2342 22.5147 72.3462 22.9253 72.5702 23.192C72.7942 23.4587 73.1515 23.592 73.6422 23.592C74.1755 23.592 74.6129 23.4107 74.9542 23.048C75.2955 22.6747 75.4662 22.184 75.4662 21.576V18.056C75.4662 17.7147 75.5515 17.464 75.7222 17.304C75.8929 17.1333 76.1382 17.048 76.4582 17.048C76.7782 17.048 77.0235 17.1333 77.1942 17.304C77.3755 17.464 77.4662 17.7147 77.4662 18.056V24.104C77.4662 24.7867 77.1409 25.128 76.4902 25.128C76.1809 25.128 75.9409 25.0427 75.7702 24.872C75.5995 24.6907 75.5142 24.4347 75.5142 24.104V22.888L75.7382 23.368C75.5142 23.944 75.1729 24.3867 74.7142 24.696C74.2662 25.0053 73.7329 25.16 73.1142 25.16ZM82.4118 25.16C81.9531 25.16 81.4678 25.112 80.9558 25.016C80.4438 24.92 79.9851 24.7547 79.5798 24.52C79.4091 24.4133 79.2865 24.2907 79.2118 24.152C79.1478 24.0027 79.1211 23.8587 79.1318 23.72C79.1531 23.5707 79.2065 23.4427 79.2918 23.336C79.3878 23.2293 79.5051 23.16 79.6438 23.128C79.7931 23.096 79.9531 23.1227 80.1238 23.208C80.5505 23.4107 80.9505 23.5547 81.3238 23.64C81.6971 23.7147 82.0651 23.752 82.4278 23.752C82.9398 23.752 83.3185 23.6667 83.5638 23.496C83.8198 23.3147 83.9478 23.08 83.9478 22.792C83.9478 22.5467 83.8625 22.36 83.6918 22.232C83.5318 22.0933 83.2865 21.992 82.9558 21.928L81.3558 21.624C80.6945 21.496 80.1878 21.256 79.8358 20.904C79.4945 20.5413 79.3238 20.0773 79.3238 19.512C79.3238 19 79.4625 18.5573 79.7398 18.184C80.0278 17.8107 80.4225 17.5227 80.9238 17.32C81.4251 17.1173 82.0011 17.016 82.6518 17.016C83.1211 17.016 83.5585 17.0693 83.9638 17.176C84.3798 17.272 84.7798 17.4267 85.1638 17.64C85.3238 17.7253 85.4305 17.8373 85.4838 17.976C85.5478 18.1147 85.5638 18.2587 85.5318 18.408C85.4998 18.5467 85.4358 18.6747 85.3398 18.792C85.2438 18.8987 85.1211 18.968 84.9718 19C84.8331 19.0213 84.6731 18.9893 84.4918 18.904C84.1611 18.7333 83.8411 18.6107 83.5318 18.536C83.2331 18.4613 82.9451 18.424 82.6678 18.424C82.1451 18.424 81.7558 18.5147 81.4998 18.696C81.2545 18.8773 81.1318 19.1173 81.1318 19.416C81.1318 19.64 81.2065 19.8267 81.3558 19.976C81.5051 20.1253 81.7345 20.2267 82.0438 20.28L83.6438 20.584C84.3371 20.712 84.8598 20.9467 85.2118 21.288C85.5745 21.6293 85.7558 22.088 85.7558 22.664C85.7558 23.4427 85.4518 24.056 84.8438 24.504C84.2358 24.9413 83.4251 25.16 82.4118 25.16ZM91.2163 25.16C90.331 25.16 89.5683 24.9947 88.9283 24.664C88.2883 24.3333 87.7923 23.864 87.4403 23.256C87.099 22.648 86.9283 21.928 86.9283 21.096C86.9283 20.2853 87.0936 19.576 87.4243 18.968C87.7656 18.36 88.2296 17.8853 88.8163 17.544C89.4136 17.192 90.091 17.016 90.8483 17.016C91.403 17.016 91.899 17.1067 92.3363 17.288C92.7843 17.4693 93.163 17.7307 93.4723 18.072C93.7923 18.4133 94.0323 18.8293 94.1923 19.32C94.363 19.8 94.4483 20.344 94.4483 20.952C94.4483 21.144 94.379 21.2933 94.2403 21.4C94.1123 21.496 93.9256 21.544 93.6803 21.544H88.5443V20.392H93.0403L92.7843 20.632C92.7843 20.1413 92.7096 19.7307 92.5603 19.4C92.4216 19.0693 92.2136 18.8187 91.9363 18.648C91.6696 18.4667 91.3336 18.376 90.9283 18.376C90.4803 18.376 90.0963 18.4827 89.7763 18.696C89.467 18.8987 89.227 19.192 89.0563 19.576C88.8963 19.9493 88.8163 20.3973 88.8163 20.92V21.032C88.8163 21.9067 89.019 22.5627 89.4243 23C89.8403 23.4267 90.4483 23.64 91.2483 23.64C91.5256 23.64 91.835 23.608 92.1763 23.544C92.5283 23.4693 92.859 23.3467 93.1683 23.176C93.3923 23.048 93.5896 22.9947 93.7603 23.016C93.931 23.0267 94.0643 23.0853 94.1603 23.192C94.267 23.2987 94.331 23.432 94.3523 23.592C94.3736 23.7413 94.3416 23.896 94.2563 24.056C94.1816 24.216 94.0483 24.3547 93.8563 24.472C93.483 24.7067 93.051 24.8827 92.5603 25C92.0803 25.1067 91.6323 25.16 91.2163 25.16ZM91.6163 16.04C91.5096 16.1893 91.3816 16.2747 91.2323 16.296C91.083 16.3173 90.939 16.2907 90.8003 16.216C90.6616 16.1413 90.5603 16.0347 90.4963 15.896C90.443 15.7573 90.459 15.6027 90.5443 15.432L91.7603 13.048C91.8563 12.8453 91.9843 12.7173 92.1443 12.664C92.3043 12.6 92.4696 12.5893 92.6403 12.632C92.811 12.6747 92.955 12.7547 93.0723 12.872C93.2003 12.9893 93.275 13.1333 93.2963 13.304C93.3283 13.464 93.2856 13.6293 93.1683 13.8L91.6163 16.04Z" fill="#DC2626"/>
<rect x="0.5" y="0.5" width="110" height="39" rx="19.5" stroke="#EF4444"/>
</svg>
