<svg width="24" height="24" viewBox="0 0 24 24" fill="none" xmlns="http://www.w3.org/2000/svg">
<path d="M11.5 19H11.9344C14.9816 19 16.5053 19 17.0836 18.4527C17.5836 17.9796 17.8051 17.2827 17.6702 16.6078C17.514 15.827 16.2701 14.9471 13.7823 13.1875L9.71772 10.3125C7.2299 8.55286 5.98599 7.67301 5.82984 6.89221C5.69486 6.21728 5.91642 5.52037 6.41636 5.04729C6.99474 4.5 8.51836 4.5 11.5656 4.5H12.5M8 19C8 17.3431 6.65685 16 5 16C3.34315 16 2 17.3431 2 19C2 20.6569 3.34315 22 5 22C6.65685 22 8 20.6569 8 19ZM22 5C22 3.34315 20.6569 2 19 2C17.3431 2 16 3.34315 16 5C16 6.65685 17.3431 8 19 8C20.6569 8 22 6.65685 22 5Z" stroke="#94A3B8" stroke-width="2" stroke-linecap="round" stroke-linejoin="round"/>
</svg>
